<svg xmlns="http://www.w3.org/2000/svg" width="500" zoomAndPan="magnify" viewBox="0 0 375 374.999991" height="500" preserveAspectRatio="xMidYMid meet" version="1.0"><defs><clipPath id="6666177df8"><path d="M 84.410156 90.632812 L 290.660156 90.632812 L 290.660156 284.132812 L 84.410156 284.132812 Z M 84.410156 90.632812 " clip-rule="nonzero"/></clipPath><clipPath id="82ec2e83d5"><path d="M 109 113 L 178 113 L 178 176 L 109 176 Z M 109 113 " clip-rule="nonzero"/></clipPath><clipPath id="a9811b48fb"><path d="M 126.601562 107.84375 L 187.761719 162.085938 L 164.871094 187.898438 L 103.710938 133.65625 Z M 126.601562 107.84375 " clip-rule="nonzero"/></clipPath><clipPath id="efaffde52a"><path d="M 126.601562 107.84375 L 187.761719 162.085938 L 164.871094 187.898438 L 103.710938 133.65625 Z M 126.601562 107.84375 " clip-rule="nonzero"/></clipPath></defs><path fill="#c78d20" d="M 193.769531 127.335938 C 196.277344 127.335938 198.304688 125.308594 198.304688 122.808594 L 198.304688 112.15625 C 198.304688 109.65625 196.277344 107.628906 193.769531 107.628906 C 191.265625 107.628906 189.234375 109.65625 189.234375 112.15625 L 189.234375 122.808594 C 189.234375 125.308594 191.265625 127.335938 193.769531 127.335938 Z M 193.769531 127.335938 " fill-opacity="1" fill-rule="nonzero"/><path fill="#c78d20" d="M 189.234375 252.433594 L 189.234375 263.085938 C 189.234375 265.585938 191.265625 267.613281 193.769531 267.613281 C 196.277344 267.613281 198.304688 265.585938 198.304688 263.085938 L 198.304688 252.433594 C 198.304688 249.933594 196.277344 247.90625 193.769531 247.90625 C 191.265625 247.90625 189.234375 249.933594 189.234375 252.433594 Z M 189.234375 252.433594 " fill-opacity="1" fill-rule="nonzero"/><path fill="#c78d20" d="M 219.695312 132.730469 C 221.445312 132.730469 223.113281 131.714844 223.855469 130.011719 L 228.117188 120.246094 C 229.117188 117.953125 228.066406 115.285156 225.769531 114.285156 C 223.472656 113.289062 220.800781 114.335938 219.800781 116.628906 L 215.539062 126.394531 C 214.539062 128.6875 215.589844 131.355469 217.886719 132.355469 C 218.476562 132.609375 219.089844 132.730469 219.695312 132.730469 Z M 219.695312 132.730469 " fill-opacity="1" fill-rule="nonzero"/><path fill="#c78d20" d="M 161.773438 260.957031 C 162.363281 261.214844 162.976562 261.335938 163.582031 261.335938 C 165.332031 261.335938 167 260.316406 167.742188 258.613281 L 172.003906 248.847656 C 173.003906 246.554688 171.953125 243.886719 169.65625 242.886719 C 167.359375 241.890625 164.6875 242.9375 163.6875 245.230469 L 159.425781 254.996094 C 158.425781 257.289062 159.476562 259.957031 161.773438 260.957031 Z M 161.773438 260.957031 " fill-opacity="1" fill-rule="nonzero"/><path fill="#c78d20" d="M 273.882812 187.621094 C 273.882812 185.121094 271.851562 183.09375 269.347656 183.09375 L 258.683594 183.09375 C 256.175781 183.09375 254.144531 185.121094 254.144531 187.621094 C 254.144531 190.121094 256.175781 192.148438 258.683594 192.148438 L 269.347656 192.148438 C 271.851562 192.148438 273.882812 190.121094 273.882812 187.621094 Z M 273.882812 187.621094 " fill-opacity="1" fill-rule="nonzero"/><path fill="#c78d20" d="M 242.878906 230.25 C 241.105469 228.480469 238.234375 228.480469 236.460938 230.25 C 234.691406 232.019531 234.691406 234.886719 236.460938 236.652344 L 244.003906 244.183594 C 244.890625 245.070312 246.050781 245.511719 247.210938 245.511719 C 248.371094 245.511719 249.535156 245.070312 250.417969 244.183594 C 252.191406 242.417969 252.191406 239.550781 250.417969 237.78125 Z M 242.878906 230.25 " fill-opacity="1" fill-rule="nonzero"/><path fill="#c78d20" d="M 217.417969 243.089844 C 215.113281 244.070312 214.039062 246.730469 215.019531 249.03125 L 219.195312 258.832031 C 219.929688 260.554688 221.609375 261.585938 223.371094 261.585938 C 223.964844 261.585938 224.566406 261.472656 225.148438 261.222656 C 227.453125 260.246094 228.523438 257.585938 227.542969 255.285156 L 223.367188 245.484375 C 222.386719 243.183594 219.722656 242.113281 217.417969 243.089844 Z M 217.417969 243.089844 " fill-opacity="1" fill-rule="nonzero"/><path fill="#c78d20" d="M 263.265625 221.804688 C 265.027344 221.804688 266.703125 220.777344 267.4375 219.054688 C 268.421875 216.757812 267.351562 214.09375 265.050781 213.113281 L 255.242188 208.925781 C 252.9375 207.941406 250.273438 209.011719 249.289062 211.3125 C 248.304688 213.609375 249.375 216.273438 251.675781 217.253906 L 261.484375 221.441406 C 262.066406 221.6875 262.671875 221.804688 263.265625 221.804688 Z M 263.265625 221.804688 " fill-opacity="1" fill-rule="nonzero"/><path fill="#c78d20" d="M 137.121094 244.183594 C 138.007812 245.070312 139.167969 245.511719 140.328125 245.511719 C 141.492188 245.511719 142.652344 245.070312 143.535156 244.183594 L 151.078125 236.652344 C 152.851562 234.886719 152.851562 232.019531 151.078125 230.25 C 149.308594 228.480469 146.4375 228.480469 144.664062 230.25 L 137.121094 237.78125 C 135.351562 239.550781 135.351562 242.417969 137.121094 244.183594 Z M 137.121094 244.183594 " fill-opacity="1" fill-rule="nonzero"/><path fill="#c78d20" d="M 261.625 154.082031 L 251.800781 158.226562 C 249.492188 159.199219 248.414062 161.859375 249.386719 164.160156 C 250.117188 165.890625 251.800781 166.929688 253.566406 166.929688 C 254.15625 166.929688 254.753906 166.8125 255.332031 166.570312 L 265.15625 162.425781 C 267.464844 161.453125 268.542969 158.796875 267.570312 156.492188 C 266.59375 154.1875 263.933594 153.109375 261.625 154.082031 Z M 261.625 154.082031 " fill-opacity="1" fill-rule="nonzero"/><path fill="#c78d20" d="M 124.152344 221.515625 C 124.742188 221.515625 125.339844 221.402344 125.917969 221.160156 L 135.742188 217.015625 C 138.050781 216.042969 139.128906 213.382812 138.15625 211.082031 C 137.179688 208.777344 134.519531 207.699219 132.210938 208.671875 L 122.386719 212.816406 C 120.078125 213.789062 119 216.445312 119.972656 218.75 C 120.703125 220.476562 122.386719 221.515625 124.152344 221.515625 Z M 124.152344 221.515625 " fill-opacity="1" fill-rule="nonzero"/><g clip-path="url(#6666177df8)"><path fill="#c78d20" d="M 290.652344 186.152344 C 290.652344 185.996094 290.648438 185.84375 290.644531 185.6875 C 290.640625 185.433594 290.636719 185.179688 290.628906 184.929688 C 290.625 184.730469 290.617188 184.53125 290.613281 184.332031 C 290.605469 184.125 290.601562 183.914062 290.59375 183.707031 C 290.585938 183.488281 290.574219 183.269531 290.566406 183.050781 C 290.554688 182.863281 290.550781 182.675781 290.539062 182.488281 C 290.527344 182.257812 290.515625 182.023438 290.5 181.792969 C 290.492188 181.621094 290.484375 181.445312 290.472656 181.269531 C 290.457031 181.027344 290.441406 180.78125 290.421875 180.535156 C 290.410156 180.378906 290.402344 180.21875 290.390625 180.058594 C 290.371094 179.804688 290.347656 179.550781 290.328125 179.296875 C 290.316406 179.144531 290.304688 178.996094 290.292969 178.847656 C 290.269531 178.585938 290.242188 178.324219 290.21875 178.0625 C 290.207031 177.921875 290.191406 177.78125 290.179688 177.640625 C 290.152344 177.371094 290.121094 177.105469 290.09375 176.835938 C 290.078125 176.703125 290.066406 176.570312 290.050781 176.4375 C 290.019531 176.164062 289.988281 175.890625 289.953125 175.617188 C 289.9375 175.488281 289.925781 175.363281 289.910156 175.234375 C 289.875 174.957031 289.835938 174.679688 289.800781 174.402344 C 289.785156 174.28125 289.769531 174.15625 289.75 174.035156 C 289.714844 173.757812 289.671875 173.476562 289.628906 173.199219 C 289.613281 173.078125 289.597656 172.960938 289.578125 172.839844 C 289.535156 172.558594 289.492188 172.277344 289.445312 172 C 289.429688 171.882812 289.410156 171.765625 289.390625 171.648438 C 289.347656 171.363281 289.296875 171.082031 289.25 170.800781 C 289.226562 170.6875 289.210938 170.570312 289.191406 170.457031 C 289.140625 170.175781 289.085938 169.894531 289.035156 169.613281 C 289.015625 169.5 288.992188 169.386719 288.972656 169.269531 C 288.917969 168.992188 288.863281 168.710938 288.808594 168.429688 C 288.785156 168.316406 288.761719 168.203125 288.738281 168.085938 C 288.683594 167.808594 288.625 167.53125 288.566406 167.25 C 288.539062 167.136719 288.515625 167.019531 288.492188 166.90625 C 288.433594 166.628906 288.371094 166.355469 288.308594 166.078125 C 288.28125 165.960938 288.257812 165.84375 288.230469 165.726562 C 288.167969 165.457031 288.101562 165.183594 288.039062 164.910156 C 288.007812 164.789062 287.980469 164.671875 287.953125 164.554688 C 287.886719 164.285156 287.820312 164.015625 287.753906 163.746094 C 287.722656 163.625 287.691406 163.503906 287.660156 163.382812 C 287.59375 163.117188 287.523438 162.851562 287.453125 162.589844 C 287.421875 162.464844 287.386719 162.339844 287.355469 162.214844 C 287.285156 161.953125 287.210938 161.695312 287.140625 161.433594 C 287.105469 161.304688 287.070312 161.175781 287.03125 161.046875 C 286.960938 160.792969 286.886719 160.539062 286.8125 160.285156 C 286.773438 160.152344 286.734375 160.019531 286.695312 159.886719 C 286.621094 159.636719 286.546875 159.390625 286.46875 159.144531 C 286.429688 159.003906 286.386719 158.867188 286.34375 158.726562 C 286.269531 158.484375 286.191406 158.246094 286.117188 158.007812 C 286.070312 157.859375 286.023438 157.714844 285.976562 157.570312 C 285.902344 157.335938 285.824219 157.105469 285.746094 156.871094 C 285.695312 156.71875 285.644531 156.570312 285.59375 156.417969 C 285.519531 156.191406 285.4375 155.964844 285.359375 155.738281 C 285.304688 155.582031 285.253906 155.425781 285.199219 155.269531 C 285.121094 155.050781 285.039062 154.832031 284.960938 154.613281 C 284.902344 154.449219 284.84375 154.285156 284.785156 154.125 C 284.707031 153.914062 284.628906 153.703125 284.546875 153.492188 C 284.484375 153.320312 284.421875 153.152344 284.359375 152.984375 C 284.28125 152.78125 284.199219 152.578125 284.121094 152.375 C 284.054688 152.199219 283.984375 152.023438 283.914062 151.847656 C 283.835938 151.652344 283.757812 151.457031 283.679688 151.261719 C 283.605469 151.078125 283.53125 150.894531 283.457031 150.710938 C 283.382812 150.523438 283.304688 150.339844 283.226562 150.152344 C 283.164062 150.007812 283.105469 149.863281 283.046875 149.71875 C 283.023438 149.671875 283.003906 149.625 282.984375 149.578125 C 282.964844 149.535156 282.949219 149.492188 282.929688 149.449219 C 282.875 149.320312 282.820312 149.195312 282.765625 149.070312 C 282.683594 148.878906 282.601562 148.6875 282.515625 148.496094 C 282.445312 148.332031 282.371094 148.167969 282.296875 148.003906 C 282.210938 147.808594 282.121094 147.613281 282.035156 147.417969 C 281.960938 147.261719 281.886719 147.101562 281.816406 146.941406 C 281.722656 146.746094 281.632812 146.546875 281.542969 146.351562 C 281.46875 146.195312 281.394531 146.039062 281.316406 145.882812 C 281.222656 145.683594 281.132812 145.488281 281.035156 145.292969 C 280.960938 145.136719 280.882812 144.980469 280.804688 144.820312 C 280.710938 144.628906 280.617188 144.4375 280.519531 144.242188 C 280.441406 144.085938 280.359375 143.925781 280.28125 143.765625 C 280.183594 143.578125 280.089844 143.390625 279.992188 143.203125 C 279.910156 143.039062 279.824219 142.878906 279.742188 142.71875 C 279.644531 142.535156 279.550781 142.351562 279.453125 142.167969 C 279.367188 142.003906 279.277344 141.839844 279.1875 141.675781 C 279.09375 141.496094 279 141.320312 278.902344 141.144531 C 278.808594 140.972656 278.714844 140.804688 278.625 140.636719 C 278.527344 140.464844 278.433594 140.296875 278.339844 140.125 C 278.242188 139.953125 278.144531 139.777344 278.046875 139.605469 C 277.953125 139.441406 277.859375 139.277344 277.765625 139.117188 C 277.664062 138.9375 277.558594 138.757812 277.453125 138.582031 C 277.363281 138.425781 277.273438 138.269531 277.179688 138.113281 C 277.070312 137.929688 276.960938 137.746094 276.851562 137.566406 C 276.761719 137.417969 276.675781 137.269531 276.585938 137.121094 C 276.46875 136.933594 276.351562 136.746094 276.238281 136.554688 C 276.148438 136.414062 276.0625 136.277344 275.976562 136.136719 C 275.855469 135.941406 275.730469 135.75 275.609375 135.554688 C 275.523438 135.425781 275.441406 135.289062 275.355469 135.160156 C 275.226562 134.960938 275.097656 134.761719 274.96875 134.566406 C 274.886719 134.4375 274.804688 134.3125 274.722656 134.1875 C 274.589844 133.984375 274.457031 133.785156 274.320312 133.582031 C 274.238281 133.464844 274.160156 133.34375 274.078125 133.226562 C 273.941406 133.019531 273.800781 132.816406 273.660156 132.609375 C 273.582031 132.496094 273.503906 132.382812 273.421875 132.269531 C 273.277344 132.0625 273.132812 131.851562 272.984375 131.644531 C 272.910156 131.539062 272.832031 131.429688 272.753906 131.320312 C 272.605469 131.109375 272.453125 130.902344 272.300781 130.691406 C 272.226562 130.589844 272.152344 130.484375 272.078125 130.382812 C 271.921875 130.167969 271.765625 129.957031 271.605469 129.746094 C 271.53125 129.644531 271.457031 129.546875 271.382812 129.449219 C 271.222656 129.234375 271.0625 129.023438 270.902344 128.8125 C 270.828125 128.714844 270.753906 128.617188 270.679688 128.519531 C 270.515625 128.308594 270.351562 128.097656 270.1875 127.886719 C 270.113281 127.789062 270.039062 127.695312 269.960938 127.601562 C 269.796875 127.390625 269.628906 127.179688 269.460938 126.96875 C 269.382812 126.875 269.308594 126.78125 269.234375 126.6875 C 269.0625 126.476562 268.894531 126.269531 268.722656 126.0625 C 268.648438 125.96875 268.570312 125.875 268.492188 125.78125 C 268.320312 125.578125 268.148438 125.371094 267.976562 125.167969 C 267.898438 125.074219 267.816406 124.976562 267.734375 124.882812 C 267.566406 124.679688 267.394531 124.480469 267.222656 124.285156 C 267.136719 124.183594 267.054688 124.085938 266.96875 123.988281 C 266.796875 123.792969 266.628906 123.601562 266.457031 123.40625 C 266.367188 123.304688 266.277344 123.203125 266.1875 123.101562 C 266.019531 122.914062 265.851562 122.726562 265.683594 122.542969 C 265.585938 122.433594 265.488281 122.328125 265.390625 122.222656 C 265.226562 122.042969 265.0625 121.863281 264.898438 121.6875 C 264.792969 121.574219 264.6875 121.460938 264.582031 121.347656 C 264.421875 121.179688 264.265625 121.007812 264.105469 120.839844 C 263.988281 120.71875 263.875 120.601562 263.757812 120.480469 C 263.609375 120.320312 263.453125 120.164062 263.300781 120.003906 C 263.175781 119.875 263.050781 119.746094 262.921875 119.617188 C 262.777344 119.472656 262.632812 119.324219 262.488281 119.179688 C 262.417969 119.109375 262.351562 119.039062 262.28125 118.972656 C 262.210938 118.902344 262.144531 118.832031 262.074219 118.765625 C 262.003906 118.695312 261.9375 118.628906 261.867188 118.5625 C 261.851562 118.546875 261.835938 118.53125 261.820312 118.515625 C 253.027344 109.847656 242.824219 103.027344 231.484375 98.242188 C 219.539062 93.195312 206.847656 90.636719 193.769531 90.636719 C 191.265625 90.636719 189.234375 92.664062 189.234375 95.164062 C 189.234375 97.664062 191.265625 99.691406 193.769531 99.691406 C 205.628906 99.691406 217.128906 102.011719 227.953125 106.582031 C 238.328125 110.964844 247.65625 117.226562 255.683594 125.191406 C 255.804688 125.316406 255.929688 125.4375 256.050781 125.5625 C 256.183594 125.695312 256.320312 125.832031 256.453125 125.96875 C 256.566406 126.082031 256.675781 126.195312 256.789062 126.3125 C 256.929688 126.457031 257.070312 126.601562 257.210938 126.746094 C 257.3125 126.855469 257.414062 126.960938 257.519531 127.070312 C 257.664062 127.222656 257.808594 127.378906 257.953125 127.53125 C 258.050781 127.632812 258.144531 127.734375 258.238281 127.839844 C 258.390625 128 258.539062 128.160156 258.6875 128.324219 C 258.773438 128.421875 258.863281 128.519531 258.953125 128.617188 C 259.105469 128.78125 259.253906 128.953125 259.40625 129.121094 C 259.488281 129.214844 259.574219 129.308594 259.65625 129.402344 C 259.808594 129.574219 259.960938 129.75 260.113281 129.921875 C 260.191406 130.015625 260.269531 130.105469 260.351562 130.195312 C 260.503906 130.375 260.65625 130.554688 260.808594 130.734375 C 260.886719 130.820312 260.960938 130.910156 261.035156 131 C 261.1875 131.183594 261.339844 131.363281 261.492188 131.546875 C 261.566406 131.636719 261.640625 131.726562 261.710938 131.8125 C 261.863281 131.996094 262.015625 132.183594 262.164062 132.367188 C 262.238281 132.457031 262.308594 132.546875 262.378906 132.636719 C 262.53125 132.824219 262.679688 133.007812 262.828125 133.195312 C 262.898438 133.285156 262.96875 133.375 263.039062 133.464844 C 263.183594 133.652344 263.332031 133.839844 263.476562 134.03125 C 263.546875 134.121094 263.617188 134.214844 263.6875 134.304688 C 263.832031 134.492188 263.972656 134.683594 264.113281 134.871094 C 264.183594 134.964844 264.257812 135.058594 264.328125 135.15625 C 264.464844 135.339844 264.605469 135.527344 264.742188 135.714844 C 264.8125 135.816406 264.882812 135.914062 264.957031 136.011719 C 265.089844 136.199219 265.226562 136.382812 265.359375 136.570312 C 265.429688 136.671875 265.503906 136.773438 265.578125 136.878906 C 265.707031 137.0625 265.835938 137.246094 265.964844 137.429688 C 266.039062 137.535156 266.113281 137.644531 266.1875 137.753906 C 266.3125 137.933594 266.433594 138.113281 266.558594 138.296875 C 266.636719 138.410156 266.710938 138.519531 266.785156 138.632812 C 266.90625 138.8125 267.023438 138.988281 267.144531 139.167969 C 267.21875 139.289062 267.296875 139.40625 267.375 139.523438 C 267.488281 139.699219 267.601562 139.875 267.714844 140.046875 C 267.796875 140.171875 267.875 140.296875 267.953125 140.421875 C 268.0625 140.59375 268.171875 140.761719 268.277344 140.933594 C 268.359375 141.066406 268.441406 141.195312 268.523438 141.328125 C 268.625 141.496094 268.730469 141.660156 268.832031 141.828125 C 268.914062 141.964844 268.996094 142.105469 269.082031 142.242188 C 269.179688 142.40625 269.277344 142.566406 269.371094 142.730469 C 269.457031 142.875 269.542969 143.019531 269.628906 143.164062 C 269.71875 143.320312 269.8125 143.476562 269.902344 143.636719 C 269.992188 143.789062 270.078125 143.9375 270.164062 144.089844 C 270.25 144.246094 270.335938 144.398438 270.425781 144.550781 C 270.511719 144.707031 270.597656 144.867188 270.683594 145.023438 C 270.769531 145.175781 270.851562 145.324219 270.933594 145.476562 C 271.023438 145.636719 271.109375 145.800781 271.199219 145.964844 C 271.277344 146.109375 271.355469 146.257812 271.433594 146.40625 C 271.523438 146.574219 271.609375 146.738281 271.695312 146.90625 C 271.773438 147.054688 271.847656 147.199219 271.921875 147.34375 C 272.011719 147.515625 272.097656 147.6875 272.183594 147.859375 C 272.257812 148 272.328125 148.144531 272.402344 148.289062 C 272.488281 148.460938 272.574219 148.636719 272.660156 148.8125 C 272.730469 148.953125 272.800781 149.097656 272.871094 149.242188 C 272.953125 149.414062 273.039062 149.59375 273.121094 149.769531 C 273.191406 149.914062 273.257812 150.058594 273.328125 150.203125 C 273.410156 150.375 273.488281 150.550781 273.570312 150.726562 C 273.640625 150.875 273.707031 151.023438 273.773438 151.171875 C 273.851562 151.34375 273.929688 151.515625 274.007812 151.6875 C 274.074219 151.839844 274.144531 151.996094 274.210938 152.148438 C 274.285156 152.3125 274.355469 152.480469 274.429688 152.648438 C 274.5 152.808594 274.566406 152.96875 274.636719 153.128906 C 274.707031 153.296875 274.777344 153.464844 274.847656 153.632812 C 274.917969 153.808594 274.992188 153.980469 275.066406 154.15625 C 275.132812 154.316406 275.195312 154.480469 275.261719 154.640625 C 275.335938 154.820312 275.40625 155 275.476562 155.179688 C 275.539062 155.335938 275.601562 155.496094 275.664062 155.652344 C 275.734375 155.839844 275.808594 156.023438 275.878906 156.210938 C 275.9375 156.363281 275.992188 156.515625 276.050781 156.667969 C 276.125 156.859375 276.195312 157.050781 276.265625 157.242188 C 276.320312 157.390625 276.371094 157.539062 276.425781 157.6875 C 276.496094 157.886719 276.570312 158.082031 276.640625 158.28125 C 276.691406 158.421875 276.738281 158.566406 276.789062 158.710938 C 276.859375 158.914062 276.929688 159.117188 277 159.320312 C 277.046875 159.457031 277.089844 159.597656 277.136719 159.738281 C 277.207031 159.945312 277.277344 160.152344 277.34375 160.363281 C 277.390625 160.496094 277.429688 160.632812 277.472656 160.765625 C 277.542969 160.980469 277.613281 161.195312 277.679688 161.410156 C 277.71875 161.539062 277.757812 161.671875 277.796875 161.800781 C 277.863281 162.019531 277.933594 162.238281 277.996094 162.460938 C 278.035156 162.585938 278.070312 162.714844 278.109375 162.839844 C 278.171875 163.0625 278.238281 163.289062 278.300781 163.511719 C 278.335938 163.636719 278.371094 163.757812 278.40625 163.882812 C 278.46875 164.109375 278.53125 164.339844 278.59375 164.566406 C 278.625 164.6875 278.65625 164.808594 278.691406 164.929688 C 278.75 165.164062 278.8125 165.394531 278.871094 165.625 C 278.902344 165.746094 278.929688 165.863281 278.960938 165.984375 C 279.019531 166.21875 279.078125 166.453125 279.136719 166.6875 C 279.164062 166.804688 279.191406 166.917969 279.21875 167.035156 C 279.277344 167.273438 279.332031 167.515625 279.386719 167.753906 C 279.414062 167.867188 279.4375 167.980469 279.464844 168.09375 C 279.519531 168.335938 279.574219 168.578125 279.625 168.820312 C 279.652344 168.933594 279.671875 169.046875 279.695312 169.160156 C 279.75 169.402344 279.800781 169.644531 279.851562 169.890625 C 279.871094 170.003906 279.894531 170.117188 279.917969 170.226562 C 279.964844 170.472656 280.015625 170.71875 280.058594 170.964844 C 280.082031 171.074219 280.101562 171.1875 280.121094 171.300781 C 280.167969 171.546875 280.214844 171.792969 280.257812 172.039062 C 280.277344 172.152344 280.296875 172.265625 280.316406 172.378906 C 280.359375 172.625 280.402344 172.871094 280.441406 173.117188 C 280.460938 173.230469 280.476562 173.347656 280.496094 173.460938 C 280.535156 173.707031 280.574219 173.953125 280.609375 174.199219 C 280.628906 174.316406 280.644531 174.433594 280.660156 174.550781 C 280.695312 174.796875 280.734375 175.039062 280.765625 175.28125 C 280.78125 175.40625 280.796875 175.527344 280.816406 175.648438 C 280.847656 175.886719 280.878906 176.128906 280.910156 176.371094 C 280.925781 176.492188 280.9375 176.617188 280.953125 176.742188 C 280.984375 176.980469 281.011719 177.21875 281.039062 177.460938 C 281.054688 177.585938 281.066406 177.714844 281.078125 177.839844 C 281.105469 178.078125 281.132812 178.316406 281.15625 178.550781 C 281.167969 178.683594 281.179688 178.820312 281.191406 178.953125 C 281.214844 179.183594 281.238281 179.414062 281.257812 179.648438 C 281.269531 179.789062 281.28125 179.929688 281.292969 180.070312 C 281.308594 180.296875 281.328125 180.519531 281.34375 180.746094 C 281.355469 180.894531 281.367188 181.046875 281.375 181.195312 C 281.390625 181.414062 281.40625 181.628906 281.421875 181.84375 C 281.429688 182.003906 281.4375 182.164062 281.445312 182.320312 C 281.457031 182.53125 281.472656 182.738281 281.480469 182.945312 C 281.488281 183.121094 281.496094 183.296875 281.503906 183.472656 C 281.511719 183.664062 281.523438 183.859375 281.53125 184.050781 C 281.535156 184.246094 281.542969 184.445312 281.546875 184.640625 C 281.554688 184.8125 281.558594 184.988281 281.5625 185.160156 C 281.570312 185.394531 281.574219 185.632812 281.578125 185.867188 C 281.578125 186 281.582031 186.136719 281.585938 186.269531 C 281.589844 186.640625 281.589844 187.011719 281.589844 187.382812 C 281.589844 199.222656 279.269531 210.707031 274.691406 221.515625 C 270.269531 231.957031 263.9375 241.332031 255.871094 249.386719 C 247.800781 257.441406 238.410156 263.765625 227.953125 268.183594 C 217.128906 272.753906 205.628906 275.070312 193.773438 275.070312 C 181.914062 275.070312 170.414062 272.753906 159.589844 268.183594 C 149.132812 263.765625 139.742188 257.441406 131.675781 249.386719 C 123.609375 241.332031 117.277344 231.957031 112.851562 221.515625 C 108.601562 211.476562 106.296875 200.855469 105.992188 189.910156 L 110.238281 194.152344 C 111.125 195.035156 112.285156 195.480469 113.445312 195.480469 C 114.605469 195.480469 115.769531 195.035156 116.652344 194.152344 C 118.425781 192.382812 118.425781 189.515625 116.652344 187.746094 L 104.625 175.738281 C 103.773438 174.886719 102.621094 174.410156 101.417969 174.410156 C 100.214844 174.410156 99.0625 174.886719 98.210938 175.738281 L 86.183594 187.746094 C 84.410156 189.511719 84.410156 192.382812 86.183594 194.148438 C 87.953125 195.917969 90.824219 195.917969 92.597656 194.148438 L 96.914062 189.839844 C 97.214844 202.03125 99.761719 213.859375 104.496094 225.039062 C 109.378906 236.5625 116.363281 246.90625 125.261719 255.789062 C 134.15625 264.671875 144.519531 271.648438 156.058594 276.523438 C 168.003906 281.566406 180.695312 284.125 193.773438 284.125 C 206.851562 284.125 219.539062 281.566406 231.488281 276.523438 C 243.027344 271.648438 253.386719 264.675781 262.285156 255.789062 C 271.179688 246.90625 278.167969 236.5625 283.046875 225.039062 C 288.101562 213.109375 290.664062 200.4375 290.664062 187.378906 C 290.660156 186.96875 290.660156 186.5625 290.652344 186.152344 Z M 290.652344 186.152344 " fill-opacity="1" fill-rule="nonzero"/></g><path fill="#c78d20" d="M 193.769531 196.5625 C 198.847656 196.5625 202.964844 192.449219 202.964844 187.378906 C 202.964844 186.539062 202.851562 185.726562 202.640625 184.953125 L 250.410156 137.46875 C 252.1875 135.707031 252.191406 132.839844 250.425781 131.066406 C 248.660156 129.292969 245.785156 129.285156 244.011719 131.050781 L 196.238281 178.535156 C 195.453125 178.316406 194.625 178.199219 193.769531 178.199219 C 188.691406 178.199219 184.574219 182.308594 184.574219 187.378906 C 184.574219 192.449219 188.691406 196.5625 193.769531 196.5625 Z M 193.769531 196.5625 " fill-opacity="1" fill-rule="nonzero"/><g clip-path="url(#82ec2e83d5)"><g clip-path="url(#a9811b48fb)"><g clip-path="url(#efaffde52a)"><path fill="#c78d20" d="M 175.566406 174.9375 C 175.058594 174.507812 174.414062 174.285156 173.984375 173.765625 C 174.003906 173.722656 174.050781 173.652344 174.074219 173.613281 C 174.675781 173.800781 175.257812 174.097656 175.898438 174.164062 C 176.289062 174.148438 176.800781 174.171875 176.957031 173.710938 C 177.410156 172.886719 177.160156 171.902344 176.949219 171.050781 C 176.707031 170.019531 176.246094 169.074219 175.875 168.101562 C 175.402344 167.101562 175.441406 165 166.859375 153.902344 C 163.703125 149.796875 160.144531 146.050781 160.09375 145.785156 C 156.480469 142.699219 156.492188 135.46875 155.6875 134.175781 C 155.617188 133.914062 155.101562 134.242188 155.015625 134.167969 L 155.019531 134.171875 C 154.34375 134.722656 149.789062 139.273438 150.21875 139.972656 C 149.378906 139.585938 148.707031 138.945312 147.90625 138.492188 C 146.609375 137.726562 139.488281 134.445312 136.027344 132.554688 C 134.839844 131.839844 133.828125 130.875 132.792969 129.964844 C 131.8125 129.0625 131.027344 127.972656 130.292969 126.871094 C 129.421875 125.503906 123.511719 113.222656 123.160156 113.488281 C 120.863281 116.128906 120.683594 119.140625 119.613281 122.351562 C 119.34375 122.71875 119.191406 123.171875 118.835938 123.476562 C 116.6875 124.789062 113.214844 124.488281 111.050781 125.894531 C 110.734375 126.253906 110.296875 126.4375 109.878906 126.644531 C 110.285156 127.054688 110.691406 127.464844 111.136719 127.835938 C 112.175781 128.5625 118.9375 132.066406 119.964844 132.621094 C 120.964844 133.164062 122.058594 133.5 123.058594 134.023438 C 123.625 134.328125 124.257812 134.457031 124.792969 134.792969 C 125.828125 135.496094 126.871094 136.210938 127.726562 137.136719 C 128.320312 137.78125 128.914062 138.421875 129.433594 139.132812 C 129.824219 139.671875 132.824219 143.550781 134.328125 146.203125 C 135.648438 147.574219 139.082031 154.546875 139.492188 155.105469 C 137.464844 155.722656 136.898438 156.546875 135.257812 157.964844 C 134.617188 158.40625 134.015625 159.035156 133.996094 159.855469 C 134.023438 160.183594 134.308594 160.449219 134.628906 160.492188 C 140.289062 159.972656 144.613281 161.675781 145.140625 161.359375 C 146.726562 163.144531 148.671875 164.542969 150.441406 166.128906 C 160.3125 174.699219 171.714844 175.515625 172.644531 175.722656 C 173.402344 175.917969 174.21875 176.117188 174.992188 175.878906 C 175.445312 175.875 175.769531 175.332031 175.566406 174.9375 Z M 169.921875 169.378906 C 169.347656 168.871094 169.296875 167.988281 169.808594 167.410156 C 170.320312 166.832031 171.203125 166.777344 171.777344 167.289062 C 172.355469 167.800781 172.40625 168.683594 171.894531 169.261719 C 171.382812 169.839844 170.5 169.894531 169.921875 169.378906 Z M 169.921875 169.378906 " fill-opacity="1" fill-rule="nonzero"/></g></g></g></svg>